<?xml version="1.0" encoding="UTF-8"?>
<svg xmlns="http://www.w3.org/2000/svg" xmlns:xlink="http://www.w3.org/1999/xlink" width="30pt" height="30pt" viewBox="0 0 30 30" version="1.1">
<g id="surface1">
<path style=" stroke:none;fill-rule:nonzero;fill:rgb(0.784314%,0.784314%,0.784314%);fill-opacity:1;" d="M 11.964844 3.644531 C 12.792969 2.445312 13.683594 1.207031 14.949219 0.4375 C 16.199219 1.1875 17.082031 2.402344 17.898438 3.582031 C 19.824219 6.496094 21 10 20.761719 13.519531 C 21.382812 14.039062 22.023438 14.539062 22.636719 15.070312 C 23.515625 15.878906 23.925781 17.140625 23.714844 18.3125 C 23.417969 19.796875 23.136719 21.277344 22.824219 22.753906 C 22.652344 23.515625 21.625 23.863281 21.019531 23.378906 C 20.015625 22.542969 19.035156 21.671875 18.035156 20.835938 C 17.277344 21.566406 16.265625 22.050781 15.207031 22.109375 C 13.992188 22.195312 12.785156 21.691406 11.902344 20.863281 C 11.183594 21.417969 10.515625 22.078125 9.8125 22.667969 C 9.472656 22.941406 9.191406 23.300781 8.789062 23.484375 C 8.164062 23.753906 7.363281 23.355469 7.21875 22.683594 C 6.898438 21.238281 6.5625 19.800781 6.253906 18.351562 C 6 17.128906 6.449219 15.796875 7.390625 14.976562 C 7.9375 14.519531 8.488281 14.070312 9.042969 13.625 C 9.199219 13.542969 9.121094 13.355469 9.132812 13.214844 C 8.964844 9.820312 10.125 6.464844 11.964844 3.644531 Z M 12.949219 8.117188 C 12.222656 9.054688 12.308594 10.503906 13.152344 11.34375 C 14.046875 12.328125 15.742188 12.363281 16.675781 11.417969 C 17.394531 10.757812 17.640625 9.652344 17.296875 8.742188 C 16.980469 7.863281 16.136719 7.207031 15.207031 7.125 C 14.347656 7.027344 13.457031 7.421875 12.949219 8.117188 Z M 12.949219 8.117188 "/>
<path style=" stroke:none;fill-rule:nonzero;fill:rgb(0.784314%,0.784314%,0.784314%);fill-opacity:1;" d="M 11.617188 23.894531 C 11.605469 23.46875 12.136719 23.175781 12.492188 23.402344 C 14.007812 24.183594 15.894531 24.183594 17.410156 23.402344 C 17.757812 23.1875 18.273438 23.445312 18.285156 23.859375 C 18.289062 24.765625 18.289062 25.667969 18.285156 26.574219 C 18.292969 27.015625 17.710938 27.296875 17.367188 27.019531 C 17.105469 26.789062 16.871094 26.53125 16.621094 26.289062 C 16.222656 27.0625 15.847656 27.847656 15.449219 28.621094 C 15.257812 28.988281 14.65625 28.988281 14.460938 28.625 C 14.058594 27.851562 13.683594 27.0625 13.28125 26.292969 C 13.035156 26.535156 12.796875 26.792969 12.535156 27.019531 C 12.195312 27.300781 11.613281 27.011719 11.617188 26.574219 C 11.609375 25.683594 11.617188 24.789062 11.617188 23.894531 Z M 11.617188 23.894531 "/>
<path style=" stroke:none;fill-rule:nonzero;fill:rgb(0.784314%,0.784314%,0.784314%);fill-opacity:1;" d="M 16.152344 9.636719 C 16.152344 10.3125 15.605469 10.859375 14.933594 10.859375 C 14.257812 10.859375 13.710938 10.3125 13.710938 9.636719 C 13.710938 8.964844 14.257812 8.417969 14.933594 8.417969 C 15.605469 8.417969 16.152344 8.964844 16.152344 9.636719 Z M 16.152344 9.636719 "/>
</g>
</svg>
